<svg width="20" height="20" viewBox="0 0 20 20" fill="none" xmlns="http://www.w3.org/2000/svg">
<path d="M12.5 18.3333H3.33329C2.41663 18.3333 1.66663 17.5833 1.66663 16.6667V7.50001C1.66663 7.00001 1.99996 6.66667 2.49996 6.66667C2.99996 6.66667 3.33329 7.00001 3.33329 7.50001V16.6667H12.5C13 16.6667 13.3333 17 13.3333 17.5C13.3333 18 13 18.3333 12.5 18.3333Z" fill="#FAFAFA"/>
<path d="M16.6667 15H6.66667C5.75 15 5 14.25 5 13.3333V3.33334C5 2.41667 5.75 1.66667 6.66667 1.66667H16.6667C17.5833 1.66667 18.3333 2.41667 18.3333 3.33334V13.3333C18.3333 14.25 17.5833 15 16.6667 15ZM7.25 2.91667C6.69771 2.91667 6.25 3.36439 6.25 3.91667V12.75C6.25 13.3023 6.69772 13.75 7.25 13.75H16.0833C16.6356 13.75 17.0833 13.3023 17.0833 12.75V3.91667C17.0833 3.36439 16.6356 2.91667 16.0833 2.91667H7.25Z" fill="#FAFAFA"/>
<path d="M10.8334 10.8333C10.5834 10.8333 10.4167 10.75 10.25 10.5833L8.58337 8.91666C8.25004 8.58333 8.25004 8.08333 8.58337 7.74999C8.91671 7.41666 9.41671 7.41666 9.75004 7.74999L10.8334 8.83333L13.5834 6.08333C13.9167 5.74999 14.4167 5.74999 14.75 6.08333C15.0834 6.41666 15.0834 6.91666 14.75 7.24999L11.4167 10.5833C11.25 10.75 11.0834 10.8333 10.8334 10.8333Z" fill="#FAFAFA"/>
</svg>
