<svg width="20" height="20" viewBox="0 0 20 20" fill="none" xmlns="http://www.w3.org/2000/svg">
<path d="M9.18301 16.25H6.24967C5.73301 16.25 5.27467 16.2333 4.86634 16.175C2.67467 15.9333 2.08301 14.9 2.08301 12.0833V7.91667C2.08301 5.1 2.67467 4.06667 4.86634 3.825C5.27467 3.76667 5.73301 3.75 6.24967 3.75H9.13301" stroke="#FAFAFA" stroke-width="1.5" stroke-linecap="round" stroke-linejoin="round"/>
<path d="M12.5166 3.75H13.7499C14.2666 3.75 14.7249 3.76667 15.1333 3.825C17.3249 4.06667 17.9166 5.1 17.9166 7.91667V12.0833C17.9166 14.9 17.3249 15.9333 15.1333 16.175C14.7249 16.2333 14.2666 16.25 13.7499 16.25H12.5166" stroke="#FAFAFA" stroke-width="1.5" stroke-linecap="round" stroke-linejoin="round"/>
<path d="M12.5 1.66663V18.3333" stroke="#FAFAFA" stroke-width="1.5" stroke-linecap="round" stroke-linejoin="round"/>
<path d="M12.1254 9.79499C12.1254 10.7025 11.3921 11.4358 10.4846 11.4358C9.57708 11.4358 8.84375 10.7025 8.84375 9.79499C8.84375 8.88749 9.57708 8.15416 10.4846 8.15416C11.3921 8.15416 12.1254 8.88749 12.1254 9.79499Z" stroke="#FAFAFA" stroke-linecap="round" stroke-linejoin="round"/>
<path d="M6.30937 8.60333C7.35896 6.95333 8.86688 6 10.4848 6C11.1867 6 11.8679 6.17944 12.5 6.51735V13.0681C11.8679 13.406 11.1867 13.5854 10.4848 13.5854C8.86688 13.5854 7.35896 12.6321 6.30937 10.9821C5.89687 10.3358 5.89687 9.24958 6.30937 8.60333Z" stroke="#FAFAFA" stroke-linecap="round" stroke-linejoin="round"/>
</svg>
