<svg width="24" height="30" viewBox="0 0 24 30" fill="none" xmlns="http://www.w3.org/2000/svg">
<path fill-rule="evenodd" clip-rule="evenodd" d="M4.68742 0H14.7174L23.2182 8.86058V26.0945C23.2182 28.2534 21.4715 30 19.3201 30H4.68742C2.52851 30 0.781891 28.2534 0.781891 26.0945V3.90553C0.781853 1.74662 2.52847 0 4.68742 0V0Z" fill="#E2574C"/>
<path opacity="0.302" fill-rule="evenodd" clip-rule="evenodd" d="M14.7099 0V8.79311H23.2182L14.7099 0Z" fill="white"/>
<path d="M5.12219 22.3838V16.904H7.45353C8.03075 16.904 8.48804 17.0615 8.83286 17.3838C9.17768 17.6986 9.35011 18.1259 9.35011 18.6582C9.35011 19.1904 9.17768 19.6177 8.83286 19.9325C8.48804 20.2549 8.03075 20.4123 7.45353 20.4123H6.52399V22.3838H5.12219ZM6.52399 19.2204H7.29612C7.506 19.2204 7.67092 19.1754 7.78338 19.0705C7.89581 18.973 7.95581 18.8381 7.95581 18.6582C7.95581 18.4783 7.89585 18.3434 7.78338 18.2459C7.67096 18.141 7.50603 18.096 7.29612 18.096H6.52399V19.2204ZM9.92729 22.3838V16.904H11.8688C12.2511 16.904 12.611 16.9565 12.9483 17.069C13.2856 17.1814 13.593 17.3388 13.8628 17.5562C14.1327 17.7661 14.3501 18.051 14.5075 18.4108C14.6574 18.7706 14.7399 19.1829 14.7399 19.6477C14.7399 20.105 14.6574 20.5173 14.5075 20.877C14.3501 21.2369 14.1327 21.5217 13.8628 21.7316C13.5929 21.949 13.2856 22.1064 12.9483 22.2189C12.611 22.3313 12.2511 22.3838 11.8688 22.3838H9.92729ZM11.2991 21.1919H11.7039C11.9213 21.1919 12.1237 21.1694 12.3111 21.1169C12.491 21.0645 12.6634 20.982 12.8283 20.8696C12.9858 20.7572 13.1132 20.5997 13.2031 20.3898C13.2931 20.1799 13.3381 19.9325 13.3381 19.6477C13.3381 19.3553 13.2931 19.1079 13.2031 18.8981C13.1132 18.6882 12.9858 18.5308 12.8283 18.4183C12.6634 18.3059 12.491 18.2234 12.3111 18.1709C12.1237 18.1185 11.9213 18.096 11.7039 18.096H11.2991V21.1919ZM15.4445 22.3838V16.904H19.3426V18.096H16.8463V18.973H18.8403V20.1574H16.8463V22.3838H15.4445Z" fill="white"/>
</svg>
