<svg width="20" height="20" viewBox="0 0 20 20" fill="none" xmlns="http://www.w3.org/2000/svg">
<path d="M10.13 9.07649C10.0482 9.06831 9.94997 9.06831 9.85997 9.07649C7.9127 9.01103 6.36633 7.41558 6.36633 5.45194C6.36633 3.4474 7.98633 1.81921 9.99906 1.81921C12.0036 1.81921 13.6318 3.4474 13.6318 5.45194C13.6236 7.41558 12.0772 9.01103 10.13 9.07649Z" stroke="#FAFAFA" stroke-width="1.5" stroke-linecap="round" stroke-linejoin="round"/>
<path d="M6.03908 12.0956C4.05908 13.421 4.05908 15.581 6.03908 16.8983C8.28908 18.4038 11.9791 18.4038 14.2291 16.8983C16.2091 15.5729 16.2091 13.4129 14.2291 12.0956C11.9873 10.5983 8.29726 10.5983 6.03908 12.0956Z" stroke="#FAFAFA" stroke-width="1.5" stroke-linecap="round" stroke-linejoin="round"/>
</svg>
