<svg width="20" height="20" viewBox="0 0 20 20" fill="none" xmlns="http://www.w3.org/2000/svg">
<path d="M16.5833 11.25H3.41663C2.16663 11.25 1.66663 11.7833 1.66663 13.1083V16.475C1.66663 17.8 2.16663 18.3333 3.41663 18.3333H16.5833C17.8333 18.3333 18.3333 17.8 18.3333 16.475V13.1083C18.3333 11.7833 17.8333 11.25 16.5833 11.25Z" stroke="#FAFAFA" stroke-width="1.5" stroke-linecap="round" stroke-linejoin="round"/>
<path d="M16.5833 1.66667H3.41663C2.16663 1.66667 1.66663 2.20001 1.66663 3.52501V6.89167C1.66663 8.21667 2.16663 8.75001 3.41663 8.75001H16.5833C17.8333 8.75001 18.3333 8.21667 18.3333 6.89167V3.52501C18.3333 2.20001 17.8333 1.66667 16.5833 1.66667Z" stroke="#FAFAFA" stroke-width="1.5" stroke-linecap="round" stroke-linejoin="round"/>
</svg>
